<?xml version="1.0" standalone="no"?>
<!DOCTYPE svg PUBLIC "-//W3C//DTD SVG 1.1//EN" "http://www.w3.org/Graphics/SVG/1.1/DTD/svg11.dtd" >
<svg xmlns="http://www.w3.org/2000/svg">
<metadata>Generated by IcoMoon</metadata>
<defs>
<font id="icomoon" horiz-adv-x="1024">
<font-face units-per-em="1024" ascent="960" descent="-64" />
<missing-glyph horiz-adv-x="1024" />
<glyph unicode="&#x20;" horiz-adv-x="512" d="" />
<glyph unicode="&#xe900;" glyph-name="add_circle" d="M726 406v84h-172v172h-84v-172h-172v-84h172v-172h84v172h172zM512 874q176 0 301-125t125-301-125-301-301-125-301 125-125 301 125 301 301 125z" />
<glyph unicode="&#xe901;" glyph-name="arrow_lift" d="M246.784 491.691l443.051 442.709c24.917 24.917 62.464 24.917 87.381 0s24.917-62.464 0-87.381l-399.36-399.36 399.36-399.36c24.917-24.917 24.917-62.464 0-87.381s-62.464-24.917-87.381 0l-443.051 443.392c-24.917 24.917-24.917 62.464 0 87.381z" />
<glyph unicode="&#xe902;" glyph-name="check_circle" d="M426 234l384 384-60 62-324-324-152 152-60-60zM512 874q176 0 301-125t125-301-125-301-301-125-301 125-125 301 125 301 301 125z" />
<glyph unicode="&#xe903;" glyph-name="close" d="M810 686l-238-238 238-238-60-60-238 238-238-238-60 60 238 238-238 238 60 60 238-238 238 238z" />
<glyph unicode="&#xe904;" glyph-name="favorite" d="M512 50l-62 56c-220 200-364 330-364 492 0 132 102 234 234 234 74 0 146-36 192-90 46 54 118 90 192 90 132 0 234-102 234-234 0-162-144-294-364-494z" />
<glyph unicode="&#xe905;" glyph-name="keyboard_arrow_right" d="M366 262l196 196-196 196 60 60 256-256-256-256z" />
<glyph unicode="&#xe906;" glyph-name="remove_circle_outline" d="M512 106q140 0 241 101t101 241-101 241-241 101-241-101-101-241 101-241 241-101zM512 874q176 0 301-125t125-301-125-301-301-125-301 125-125 301 125 301 301 125zM298 490h428v-84h-428v84z" />
<glyph unicode="&#xe907;" glyph-name="shopping_cart" d="M726 192q34 0 59-26t25-60-25-59-59-25-60 25-26 59 26 60 60 26zM42 874h140l40-84h632q18 0 30-13t12-31q0-10-6-20l-152-276q-24-44-74-44h-318l-38-70-2-6q0-10 10-10h494v-86h-512q-34 0-59 26t-25 60q0 20 10 40l58 106-154 324h-86v84zM298 192q34 0 60-26t26-60-26-59-60-25-59 25-25 59 25 60 59 26z" />
<glyph unicode="&#xe908;" glyph-name="thumb_down" d="M810 832h172v-512h-172v512zM640 832q34 0 60-26t26-60v-426q0-34-26-60l-280-282-46 46q-18 18-18 44v14l42 196h-270q-34 0-60 25t-26 59l2 4h-2v82q0 16 6 32l130 300q20 52 78 52h384z" />
<glyph unicode="&#xe909;" glyph-name="thumb_up" d="M982 534l-2-4h2v-82q0-16-6-32l-130-300q-20-52-78-52h-384q-34 0-60 26t-26 60v426q0 34 26 60l280 282 46-46q18-18 18-44v-14l-42-196h270q34 0 60-25t26-59zM42 64v512h172v-512h-172z" />
<glyph unicode="&#xe90b;" d="M672 560h80v-352h-80v352z" />
<glyph unicode="&#xe90c;" d="M960 176h-896c-17.674 0-32 14.326-32 32v32h960v-32c0-17.674-14.326-32-32-32z" />
<glyph unicode="&#xe90d;" d="M984.062 465.082l-155.766 217.16c-3.046 3.648-7.546 5.758-12.296 5.758h-64c-8.844 0-16-7.164-16-16v-432c0-8.836 7.156-16 16-16h224c26.468 0 48 21.532 48 48v145.762c0 23.726-17.296 43.484-39.938 47.32z" />
<glyph unicode="&#xe90e;" d="M893.404 672c20.66 0 39.004-13.22 45.536-32.822l45.122-174.096c0 0-115.088 23.386-148.982 32.68-20.794 5.7-35.080 24.678-35.080 46.238v128h93.404z" />
<glyph unicode="&#xe90f;" d="M800 656c-8.844 0-16 7.164-16 16v76.118c0 8.54-3.328 16.578-9.376 22.632l-17.938 17.938c-6.25 6.25-6.25 16.376 0 22.626s16.376 6.25 22.626 0l17.938-17.938c12.094-12.102 18.75-28.172 18.75-45.258v-76.118c0-8.836-7.156-16-16-16z" />
<glyph unicode="&#xe910;" d="M656 752h-608c-26.468 0-48-21.532-48-48v-432c0-26.468 21.532-48 48-48 0 0 631.156 0 640 0s16 7.164 16 16v464c0 26.468-21.532 48-48 48z" />
<glyph unicode="&#xe911;" d="M0 272c0-26.468 21.532-48 48-48h640c8.844 0 16 7.164 16 16v112h-704v-80z" />
<glyph unicode="&#xe912;" d="M496 144h-128c-17.674 0-32 14.326-32 32v32c0 17.674 14.326 32 32 32h128c17.674 0 32-14.326 32-32v-32c0-17.674-14.326-32-32-32z" />
<glyph unicode="&#xe913;" d="M384 176c-4.156 0-8.328 1.766-11.36 4.64-2.89 3.040-4.64 7.204-4.64 11.36 0 4.164 1.75 8.32 4.64 11.36 6.078 5.922 16.796 5.922 22.718 0 2.876-3.040 4.64-7.196 4.64-11.36 0-4.156-1.766-8.32-4.796-11.36-2.89-2.874-7.046-4.64-11.202-4.64z" />
<glyph unicode="&#xe914;" d="M968 352c-13.254 0-24-10.746-24-24s10.746-24 24-24h24v48h-24z" />
<glyph unicode="&#xe915;" d="M304 192c0-61.856-50.144-112-112-112s-112 50.144-112 112c0 61.856 50.144 112 112 112s112-50.144 112-112z" />
<glyph unicode="&#xe916;" d="M256 192c0-35.346-28.654-64-64-64s-64 28.654-64 64c0 35.346 28.654 64 64 64s64-28.654 64-64z" />
<glyph unicode="&#xe917;" d="M944 192c0-61.856-50.144-112-112-112s-112 50.144-112 112c0 61.856 50.144 112 112 112s112-50.144 112-112z" />
<glyph unicode="&#xe918;" d="M896 192c0-35.346-28.654-64-64-64s-64 28.654-64 64c0 35.346 28.654 64 64 64s64-28.654 64-64z" />
<glyph unicode="&#xe919;" d="M992 352h32v-48h-32v48z" />
<glyph unicode="&#xe91a;" d="M944 688h-192c-8.836 0-16-7.164-16-16v-16h208c8.844 0 16 7.164 16 16s-7.156 16-16 16z" />
</font>
</defs>
</svg>
